<svg width="16" height="17" viewBox="0 0 16 17" fill="none" xmlns="http://www.w3.org/2000/svg">
<path d="M3.33333 10.5C2.71207 10.5 2.40145 10.5 2.15642 10.3985C1.82971 10.2632 1.57015 10.0036 1.43482 9.67691C1.33333 9.43188 1.33333 9.12126 1.33333 8.5V3.96667C1.33333 3.21993 1.33333 2.84656 1.47865 2.56135C1.60648 2.31046 1.81046 2.10649 2.06134 1.97866C2.34656 1.83333 2.71992 1.83333 3.46666 1.83333H8C8.62125 1.83333 8.93188 1.83333 9.17691 1.93483C9.50361 2.07015 9.76318 2.32972 9.8985 2.65642C10 2.90145 10 3.21208 10 3.83333M8.13333 15.1667H12.5333C13.2801 15.1667 13.6534 15.1667 13.9386 15.0213C14.1895 14.8935 14.3935 14.6895 14.5213 14.4387C14.6667 14.1534 14.6667 13.7801 14.6667 13.0333V8.63333C14.6667 7.8866 14.6667 7.51323 14.5213 7.22801C14.3935 6.97713 14.1895 6.77316 13.9386 6.64532C13.6534 6.5 13.2801 6.5 12.5333 6.5H8.13333C7.38659 6.5 7.01322 6.5 6.72801 6.64532C6.47713 6.77316 6.27315 6.97713 6.14532 7.22801C6 7.51323 6 7.8866 6 8.63333V13.0333C6 13.7801 6 14.1534 6.14532 14.4387C6.27315 14.6895 6.47713 14.8935 6.72801 15.0213C7.01322 15.1667 7.38659 15.1667 8.13333 15.1667Z" stroke="#999CAB" stroke-width="1.33333" stroke-linecap="round" stroke-linejoin="round"/>
</svg>
