<svg width="25" height="24" viewBox="0 0 25 24" fill="none" xmlns="http://www.w3.org/2000/svg">
<path fill-rule="evenodd" clip-rule="evenodd" d="M13.0227 1.33636C12.6804 1.24368 12.3196 1.24368 11.9773 1.33636C11.58 1.44395 11.2454 1.7066 10.9784 1.91623L10.9038 1.97465L4.04376 7.31012C3.66713 7.6024 3.33532 7.85991 3.08806 8.19421C2.87107 8.48759 2.70942 8.8181 2.61106 9.1695C2.49898 9.56992 2.49943 9.98993 2.49995 10.4667L2.50002 17.8385C2.5 18.3657 2.49998 18.8204 2.53059 19.195C2.56289 19.5904 2.6342 19.9836 2.827 20.362C3.11462 20.9264 3.57356 21.3854 4.13805 21.673C4.51643 21.8658 4.90964 21.9371 5.30499 21.9694C5.67956 22 6.13431 22 6.66145 22H18.3386C18.8657 22 19.3205 22 19.695 21.9694C20.0904 21.9371 20.4836 21.8658 20.862 21.673C21.4265 21.3854 21.8854 20.9264 22.173 20.362C22.3658 19.9836 22.4371 19.5904 22.4694 19.195C22.5001 18.8204 22.5 18.3657 22.5 17.8386L22.5001 10.4667C22.5006 9.98993 22.5011 9.56992 22.389 9.1695C22.2906 8.8181 22.129 8.48759 21.912 8.19421C21.6647 7.8599 21.3329 7.6024 20.9563 7.31011L14.0963 1.97465L14.0216 1.91623C13.7546 1.7066 13.4201 1.44395 13.0227 1.33636ZM9.59447 13.7507C9.45681 13.2159 8.91163 12.8939 8.37678 13.0316C7.84192 13.1692 7.51994 13.7144 7.6576 14.2493C8.2126 16.4056 10.1688 18 12.5 18C14.8312 18 16.7874 16.4056 17.3424 14.2493C17.4801 13.7144 17.1581 13.1692 16.6233 13.0316C16.0884 12.8939 15.5432 13.2159 15.4056 13.7507C15.0725 15.0449 13.8965 16 12.5 16C11.1035 16 9.92756 15.0449 9.59447 13.7507Z" fill="#696E80"/>
</svg>
