<svg width="23" height="23" viewBox="0 0 23 23" fill="none" xmlns="http://www.w3.org/2000/svg">
<path d="M11.5 14.5C13.1569 14.5 14.5 13.1569 14.5 11.5C14.5 9.84315 13.1569 8.5 11.5 8.5C9.84315 8.5 8.5 9.84315 8.5 11.5C8.5 13.1569 9.84315 14.5 11.5 14.5Z" stroke="#696E80" stroke-width="2" stroke-linecap="round" stroke-linejoin="round"/>
<path d="M18.2273 14.2273C18.1063 14.5015 18.0702 14.8056 18.1236 15.1005C18.1771 15.3954 18.3177 15.6676 18.5273 15.8818L18.5818 15.9364C18.7509 16.1052 18.885 16.3057 18.9765 16.5265C19.068 16.7472 19.1151 16.9838 19.1151 17.2227C19.1151 17.4617 19.068 17.6983 18.9765 17.919C18.885 18.1397 18.7509 18.3402 18.5818 18.5091C18.413 18.6781 18.2124 18.8122 17.9917 18.9037C17.771 18.9952 17.5344 19.0423 17.2955 19.0423C17.0565 19.0423 16.8199 18.9952 16.5992 18.9037C16.3785 18.8122 16.178 18.6781 16.0091 18.5091L15.9545 18.4545C15.7403 18.245 15.4682 18.1044 15.1733 18.0509C14.8784 17.9974 14.5742 18.0335 14.3 18.1545C14.0311 18.2698 13.8018 18.4611 13.6403 18.705C13.4788 18.9489 13.3921 19.2347 13.3909 19.5273V19.6818C13.3909 20.164 13.1994 20.6265 12.8584 20.9675C12.5174 21.3084 12.0549 21.5 11.5727 21.5C11.0905 21.5 10.6281 21.3084 10.2871 20.9675C9.9461 20.6265 9.75455 20.164 9.75455 19.6818V19.6C9.74751 19.2991 9.65011 19.0073 9.47501 18.7625C9.29991 18.5176 9.05521 18.3312 8.77273 18.2273C8.49853 18.1063 8.19437 18.0702 7.89947 18.1236C7.60456 18.1771 7.33244 18.3177 7.11818 18.5273L7.06364 18.5818C6.89478 18.7509 6.69425 18.885 6.47353 18.9765C6.2528 19.068 6.01621 19.1151 5.77727 19.1151C5.53834 19.1151 5.30174 19.068 5.08102 18.9765C4.86029 18.885 4.65977 18.7509 4.49091 18.5818C4.32186 18.413 4.18775 18.2124 4.09626 17.9917C4.00476 17.771 3.95766 17.5344 3.95766 17.2955C3.95766 17.0565 4.00476 16.8199 4.09626 16.5992C4.18775 16.3785 4.32186 16.178 4.49091 16.0091L4.54545 15.9545C4.75503 15.7403 4.89562 15.4682 4.9491 15.1733C5.00257 14.8784 4.96647 14.5742 4.84545 14.3C4.73022 14.0311 4.53887 13.8018 4.29497 13.6403C4.05107 13.4788 3.76526 13.3921 3.47273 13.3909H3.31818C2.83597 13.3909 2.37351 13.1994 2.03253 12.8584C1.69156 12.5174 1.5 12.0549 1.5 11.5727C1.5 11.0905 1.69156 10.6281 2.03253 10.2871C2.37351 9.9461 2.83597 9.75455 3.31818 9.75455H3.4C3.7009 9.74751 3.99273 9.65011 4.23754 9.47501C4.48236 9.29991 4.66883 9.05521 4.77273 8.77273C4.89374 8.49853 4.92984 8.19437 4.87637 7.89947C4.8229 7.60456 4.68231 7.33244 4.47273 7.11818L4.41818 7.06364C4.24913 6.89478 4.11503 6.69425 4.02353 6.47353C3.93203 6.2528 3.88493 6.01621 3.88493 5.77727C3.88493 5.53834 3.93203 5.30174 4.02353 5.08102C4.11503 4.86029 4.24913 4.65977 4.41818 4.49091C4.58704 4.32186 4.78757 4.18775 5.00829 4.09626C5.22901 4.00476 5.46561 3.95766 5.70455 3.95766C5.94348 3.95766 6.18008 4.00476 6.4008 4.09626C6.62152 4.18775 6.82205 4.32186 6.99091 4.49091L7.04545 4.54545C7.25971 4.75503 7.53183 4.89562 7.82674 4.9491C8.12164 5.00257 8.4258 4.96647 8.7 4.84545H8.77273C9.04161 4.73022 9.27093 4.53887 9.43245 4.29497C9.59397 4.05107 9.68065 3.76526 9.68182 3.47273V3.31818C9.68182 2.83597 9.87338 2.37351 10.2144 2.03253C10.5553 1.69156 11.0178 1.5 11.5 1.5C11.9822 1.5 12.4447 1.69156 12.7856 2.03253C13.1266 2.37351 13.3182 2.83597 13.3182 3.31818V3.4C13.3193 3.69253 13.406 3.97834 13.5676 4.22224C13.7291 4.46614 13.9584 4.65749 14.2273 4.77273C14.5015 4.89374 14.8056 4.92984 15.1005 4.87637C15.3954 4.8229 15.6676 4.68231 15.8818 4.47273L15.9364 4.41818C16.1052 4.24913 16.3057 4.11503 16.5265 4.02353C16.7472 3.93203 16.9838 3.88493 17.2227 3.88493C17.4617 3.88493 17.6983 3.93203 17.919 4.02353C18.1397 4.11503 18.3402 4.24913 18.5091 4.41818C18.6781 4.58704 18.8122 4.78757 18.9037 5.00829C18.9952 5.22901 19.0423 5.46561 19.0423 5.70455C19.0423 5.94348 18.9952 6.18008 18.9037 6.4008C18.8122 6.62152 18.6781 6.82205 18.5091 6.99091L18.4545 7.04545C18.245 7.25971 18.1044 7.53183 18.0509 7.82674C17.9974 8.12164 18.0335 8.4258 18.1545 8.7V8.77273C18.2698 9.04161 18.4611 9.27093 18.705 9.43245C18.9489 9.59397 19.2347 9.68065 19.5273 9.68182H19.6818C20.164 9.68182 20.6265 9.87338 20.9675 10.2144C21.3084 10.5553 21.5 11.0178 21.5 11.5C21.5 11.9822 21.3084 12.4447 20.9675 12.7856C20.6265 13.1266 20.164 13.3182 19.6818 13.3182H19.6C19.3075 13.3193 19.0217 13.406 18.7778 13.5676C18.5339 13.7291 18.3425 13.9584 18.2273 14.2273Z" stroke="#696E80" stroke-width="2" stroke-linecap="round" stroke-linejoin="round"/>
</svg>
