<?xml version="1.0" encoding="UTF-8"?>
<svg version="1.1" xmlns="http://www.w3.org/2000/svg" width="1024" height="1024">
<path d="M0 0 C337.92 0 675.84 0 1024 0 C1024 337.92 1024 675.84 1024 1024 C686.08 1024 348.16 1024 0 1024 C0 686.08 0 348.16 0 0 Z " fill="#FEFDFA" transform="translate(0,0)"/>
<path d="M0 0 C6.36562634 0.92267722 12.0924684 3.31554928 17.9375 5.9375 C22.42755124 8.17515884 26.23186419 10.79285153 29.89794922 14.22070312 C34.96661133 19.25560631 38.75438742 24.53820031 42.4609375 30.66015625 C43.84126566 32.75867546 45.00957472 34.28816919 46.9375 35.875 C54.22771071 40.37873017 63.61816045 42.11268872 71.83203125 44.28515625 C72.6314917 44.49914062 73.43095215 44.713125 74.25463867 44.93359375 C75.79476675 45.34222182 77.33783057 45.73999504 78.8840332 46.125 C82.48986915 47.07272169 85.17761962 48.10394785 88.4375 50.01171875 C89.283125 50.66785156 90.12875 51.32398438 91 52 C92.375 54.25 92.375 54.25 93 56 C92.67 57.65 92.34 59.3 92 61 C91.34 61.66 90.68 62.32 90 63 C84.41761414 64.1035767 78.85602672 64.35817402 73.1875 64.6484375 C71.03773488 64.76777 68.88799606 64.88757713 66.73828125 65.0078125 C63.37962111 65.19247774 60.02090594 65.37392367 56.66162109 65.546875 C38.61627563 66.30348584 38.61627563 66.30348584 21 70 C16.09815306 72.0950175 11.96738118 74.86203013 7.8125 78.1875 C4.91011506 80.84705592 2.76757812 83.59707897 0.6875 86.9375 C-1.64637506 91.1537375 -3.90876853 95.28042391 -5 100 C-5.89010762 106.71289499 -4.67811295 113.44921921 -3.47875977 120.05859375 C0.57802226 140.63498512 8.6111538 159.5540377 18.640625 177.88671875 C24.230239 187.81415504 30.78726367 197.18708706 38 206 C37.44665457 210.90577893 35.92781987 215.22620493 34.26953125 219.83911133 C28.77911724 235.24373639 25.31143048 250.43402981 24.66015625 266.80859375 C24.35651745 280.42061597 25.17987572 293.67380251 28 307 C28.16628906 307.78777832 28.33257813 308.57555664 28.50390625 309.38720703 C32.26017703 326.467805 38.92936557 342.93497622 47.77539062 358.02880859 C51.8435949 364.57719003 56.43938586 370.78996375 61 377 C60.76641011 380.65401328 60.45709588 383.82563091 59.125 387.24804688 C57.98002728 389.62182067 56.76566396 391.93831722 55.5 394.25 C55.05221191 395.08192871 54.60442383 395.91385742 54.14306641 396.77099609 C50.33412586 403.69475584 46.06917544 409.92253967 41 416 C40.35546875 416.79535156 39.7109375 417.59070313 39.046875 418.41015625 C31.00980134 427.93376183 20.81655854 435.45525105 10.31054688 442.0625 C-5.41893482 451.75253365 -22.37565098 456.89650752 -40 462 C-43.40154675 468.75157174 -46.79630013 475.50652973 -50.18676758 482.26367188 C-51.33631761 484.552833 -52.48731339 486.84126879 -53.63989258 489.12890625 C-59.32258048 500.41016738 -64.97507164 511.69692788 -70.19140625 523.203125 C-70.73473854 524.39418854 -70.73473854 524.39418854 -71.28904724 525.60931396 C-73.56977104 530.72094117 -75.63399506 535.79509806 -76.2746582 541.4050293 C-76.30390287 543.83342999 -76.32831874 546.2588715 -76.3125 548.6875 C-76.30686035 549.60813232 -76.3012207 550.52876465 -76.29541016 551.47729492 C-75.84896357 577.35572587 -67.97903694 602.46624622 -59.64941406 626.75987244 C-53.71196047 643.86584767 -46.56924271 660.32256627 -38.3125 676.4375 C-37.80219238 677.4378125 -37.29188477 678.438125 -36.76611328 679.46875 C-33.11102217 686.41213816 -28.98263727 692.92428074 -24 699 C-20.53929273 702.3010335 -16.99524811 704.90296857 -12.8046875 707.20703125 C-5.63804928 710.45023871 2.13648063 711.41045671 9.83935547 712.64990234 C20.27900193 714.34147896 30.43082037 716.30818616 40 721 C42.71433132 722.73754773 44.90805462 724.54997388 47 727 C48.9375 729.8125 48.9375 729.8125 50 733 C50.21817295 736.01971192 50.1812327 738.97945498 50 742 C48.375 743.4375 48.375 743.4375 46 745 C40.55215374 746.28313292 35.07554321 746.16155691 29.51171875 746.16796875 C28.49511673 746.17129715 27.47851471 746.17462555 26.43110657 746.17805481 C24.27853851 746.18310897 22.12596265 746.1854636 19.97338867 746.18530273 C16.73667813 746.18746711 13.50032119 746.20557753 10.26367188 746.22460938 C-3.77663318 746.26329534 -17.83250565 746.21240239 -31.4375 742.3125 C-36.30238299 740.4981379 -40.47419047 738.16479482 -44.62109375 735.04296875 C-50.3426723 730.12936352 -55.01583958 724.71688319 -59.015625 718.33203125 C-62.00387417 713.24399501 -64.08470598 708.06680782 -66 702.5 C-66.51397339 701.05355103 -66.51397339 701.05355103 -67.03833008 699.57788086 C-68.55135167 695.29151725 -70.01862311 690.99500964 -71.38671875 686.66015625 C-75.50225959 673.63849794 -80.83132349 661.16070019 -86.18598938 648.61306763 C-88.50811302 643.16919983 -90.80208555 637.71393044 -93.0859375 632.25390625 C-105.03508485 602.82169237 -105.03508485 602.82169237 -119.3125 574.5 C-122.56611908 568.77286573 -125.63330933 563.21137169 -127.4296875 556.828125 C-128.26067808 552.70732241 -128.77664065 548.90119658 -128.66015625 544.6875 C-127.50472378 538.23348665 -124.66612676 532.48564212 -121.9765625 526.54296875 C-118.57694671 518.9607858 -117.06518505 511.20054569 -116 503 C-115.86097005 500.65930425 -115.75650846 498.31634338 -115.68359375 495.97265625 C-115.64169922 494.68681641 -115.59980469 493.40097656 -115.55664062 492.07617188 C-115.516843 490.73828375 -115.47713049 489.40039309 -115.4375 488.0625 C-115.39423346 486.69725438 -115.35061679 485.33201982 -115.30664062 483.96679688 C-115.20098847 480.64462348 -115.09888605 477.32238054 -115 474 C-117.47408838 474.89558565 -119.64751605 475.74470814 -121.78588867 477.29345703 C-122.3244751 477.77669434 -122.86306152 478.25993164 -123.41796875 478.7578125 C-124.3318335 479.56629639 -124.3318335 479.56629639 -125.26416016 480.39111328 C-125.8988623 480.9632959 -126.53356445 481.53547852 -127.1875 482.125 C-128.53127908 483.31394034 -129.87633092 484.50144374 -131.22265625 485.6875 C-131.87250488 486.26113281 -132.52235352 486.83476563 -133.19189453 487.42578125 C-136.20420854 490.04843865 -139.33940027 492.50643809 -142.4765625 494.9765625 C-145.53377531 497.42801178 -148.51719269 499.95896224 -151.5 502.5 C-155.28889032 505.726434 -159.09859167 508.90927392 -163 512 C-180.18116361 525.50603932 -180.18116361 525.50603932 -194.94140625 541.5234375 C-199.04261321 547.87568287 -200.95657415 554.77890354 -203 562 C-204.35268095 567.14825815 -205.60262409 572.31682515 -206.8125 577.5 C-206.9816391 578.22188507 -207.1507782 578.94377014 -207.32504272 579.68753052 C-215.41763875 614.39239901 -223.19898227 650.1725236 -221 686 C-220.44352259 691.77898801 -219.24023569 697.12883166 -216.93359375 702.46875 C-215.73096861 704.65967105 -214.78197754 706.24300346 -213 708 C-210.02276995 709.97987652 -207.38286447 711.57232711 -203.97119141 712.62744141 C-201.80112661 713.14157673 -199.62818134 713.58265969 -197.4375 714 C-195.84054046 714.33304785 -194.24418837 714.66902082 -192.6484375 715.0078125 C-191.86307617 715.17313477 -191.07771484 715.33845703 -190.26855469 715.50878906 C-181.44451702 717.41946102 -173.13978099 719.85629793 -165.28515625 724.4140625 C-163.162652 725.88711673 -161.54940956 727.29413698 -159.875 729.25 C-158 732 -158 732 -157 734 C-156.86584528 736.6723621 -156.95681459 739.32250488 -157 742 C-158.32 742.99 -159.64 743.98 -161 745 C-167.35699929 745.79912902 -173.57258909 746.17180392 -179.9765625 746.203125 C-180.90487885 746.20882507 -181.83319519 746.21452515 -182.78964233 746.22039795 C-184.74435305 746.22978801 -186.69907917 746.23635787 -188.65380859 746.24023438 C-191.59632003 746.24990574 -194.53812159 746.28097309 -197.48046875 746.3125 C-208.28845285 746.37389733 -218.56205732 746.0553254 -229 743 C-234.05713779 740.99349263 -238.66251042 738.76670724 -243.015625 735.4765625 C-248.38433909 730.51896616 -252.12126001 724.1311739 -256 718 C-256.52207031 717.19304688 -257.04414063 716.38609375 -257.58203125 715.5546875 C-259.42489338 712.67621121 -260.91315095 710.26054715 -262 707 C-263.52214958 690.85936543 -260.00483025 674.55190645 -257.53924561 658.65112305 C-256.95796143 654.88967077 -256.38810321 651.12649609 -255.81835938 647.36328125 C-255.70698198 646.62774143 -255.59560459 645.89220161 -255.48085213 645.13437271 C-255.25786552 643.66123319 -255.03497026 642.18807984 -254.81216812 640.71491241 C-254.59121451 639.25511374 -254.36988891 637.79537133 -254.14818954 636.33568573 C-252.38779787 624.74437619 -250.71546763 613.14669718 -249.30447388 601.50692749 C-249.10374515 599.85419994 -248.89850563 598.2020131 -248.68844604 596.55044556 C-247.53146292 587.40366852 -246.86056302 578.38285042 -246.796875 569.16015625 C-246.78690491 567.79302994 -246.78690491 567.79302994 -246.7767334 566.39828491 C-246.75653986 562.67631262 -246.74368411 558.95511963 -246.77001953 555.2331543 C-246.85116531 540.10993771 -246.85116531 540.10993771 -245.45223999 534.99862671 C-244.09963652 531.34794216 -242.26238018 528.15400788 -240 525 C-237.61328125 522.16796875 -237.61328125 522.16796875 -235.3125 520.1875 C-228.31771301 513.5708096 -222.56890029 506.18097213 -217.75244141 497.83935547 C-210.2311542 483.95507762 -204.95075888 468.50871986 -202 453 C-202.59208252 452.95681641 -203.18416504 452.91363281 -203.79418945 452.86914062 C-210.42744417 452.305763 -216.72352936 451.06134557 -223.1875 449.5 C-232.0185892 447.39305984 -240.60056239 445.59465019 -249.7265625 445.640625 C-254.564042 446.17170867 -258.7223599 447.83951849 -263.1875 449.7109375 C-264.86134815 450.4781179 -266.52056658 451.28118195 -268.140625 452.15625 C-268.75421875 452.4346875 -269.3678125 452.713125 -270 453 C-272.33203812 453.0777346 -274.66839059 453.08967728 -277 453 C-278.4375 451.6875 -278.4375 451.6875 -280 450 C-280.86419223 447.40742331 -281.17580932 445.65962293 -281.31640625 442.98828125 C-281.35830078 442.23095703 -281.40019531 441.47363281 -281.44335938 440.69335938 C-281.48267578 439.90767578 -281.52199219 439.12199219 -281.5625 438.3125 C-281.60568359 437.51521484 -281.64886719 436.71792969 -281.69335938 435.89648438 C-281.79927368 433.93118553 -281.90012551 431.96561504 -282 430 C-282.99 430.33 -283.98 430.66 -285 431 C-285.66386719 432.03640625 -286.32773437 433.0728125 -287.01171875 434.140625 C-287.90320729 435.51070212 -288.79515894 436.88047798 -289.6875 438.25 C-290.12255859 438.93191406 -290.55761719 439.61382813 -291.00585938 440.31640625 C-293.02786877 443.40184281 -294.90624312 445.91294004 -297.625 448.4375 C-298.40875 448.953125 -299.1925 449.46875 -300 450 C-303.3125 450.75 -303.3125 450.75 -306 451 C-308.25 449.875 -308.25 449.875 -311 448 C-313.1875 445.3125 -313.1875 445.3125 -315 442 C-316.58025005 436.83487174 -317.21997771 432.29040561 -317.17578125 426.8984375 C-317.15902344 426.10695313 -317.14226562 425.31546875 -317.125 424.5 C-317.11597656 423.67757813 -317.10695313 422.85515625 -317.09765625 422.0078125 C-317.07436865 420.00507917 -317.03850959 418.00249846 -317 416 C-320.67300628 418.0398418 -323.49876854 420.25364635 -326.4375 423.25 C-327.60925781 424.43916016 -327.60925781 424.43916016 -328.8046875 425.65234375 C-330.66844054 427.64543196 -332.37224423 429.67428027 -334.0625 431.8125 C-335.44921875 433.4921875 -335.44921875 433.4921875 -337 435 C-339.61164762 436.60789963 -342.17129035 437.7807286 -345 439 C-346.98 438.67 -348.96 438.34 -351 438 C-354.875 433.25 -354.875 433.25 -356 431 C-356.49412168 425.57276183 -356.46765852 420.23968992 -355.3515625 414.89453125 C-353.01002413 407.31955454 -349.3045393 400.63158723 -345 394 C-344.01585229 392.6549234 -343.02172868 391.31675672 -342 390 C-342 389.34 -342 388.68 -342 388 C-348.81011929 389.9749346 -354.99819845 393.35212139 -361.30078125 396.54296875 C-363.84584021 397.79183173 -366.35188105 398.98729114 -369 400 C-372.65625 400.3046875 -372.65625 400.3046875 -375 400 C-377.375 397.9375 -377.375 397.9375 -380 395 C-381.375 391.8125 -381.375 391.8125 -382 388 C-382.05838816 383.66467891 -381.47366473 379.65525228 -380.28125 375.48828125 C-378.25215124 369.91700577 -375.42286092 365.12895998 -371.89453125 360.375 C-368.83871555 356.54420423 -365.84774468 353.06112176 -362 350 C-357.48691728 347.06464084 -352.75761298 344.5124473 -348 342 C-347.67 341.34 -347.34 340.68 -347 340 C-354.59 339.34 -362.18 338.68 -370 338 C-371.65 336.68 -373.3 335.36 -375 334 C-375.33 331.69 -375.66 329.38 -376 327 C-374.52870694 323.0521826 -372.90116518 319.326649 -370.52734375 315.83203125 C-367.53303344 312.17231864 -364.34480327 309.32134984 -360.375 306.75 C-354.5863448 303.50658556 -348.43501337 301.54345339 -342 300 C-336.80058507 299.07110221 -331.81992659 298.87496885 -326.5625 298.9375 C-325.46518555 298.94426758 -325.46518555 298.94426758 -324.34570312 298.95117188 C-322.56376581 298.96281852 -320.78187137 298.98074809 -319 299 C-322.90231787 294.70049965 -327.56748174 291.88836216 -332.42382812 288.79882812 C-336.43834384 286.19362084 -339.740897 283.51028627 -343 280 C-342.67 277.69 -342.34 275.38 -342 273 C-340.5 271.1875 -340.5 271.1875 -338 269 C-334.63972055 267.38650465 -331.1429399 266.32236766 -327.5625 265.3125 C-322.95129831 264.75015833 -318.34335456 264.62900901 -313.74389648 265.35717773 C-311.45387925 265.86391247 -309.19861908 266.43938867 -306.9375 267.0625 C-306.11604492 267.28655518 -305.29458984 267.51061035 -304.44824219 267.74145508 C-293.15477718 270.95274815 -282.91003967 275.43020152 -273.125 281.9375 C-263.923026 288.24962727 -255.51500713 295.30691423 -247.34765625 302.8984375 C-244.9892118 305.10950361 -244.9892118 305.10950361 -242 307 C-240.68 306.67 -239.36 306.34 -238 306 C-237.14019531 305.10539062 -236.28039062 304.21078125 -235.39453125 303.2890625 C-222.71440799 290.25058006 -208.97867714 279.58592794 -192.96923828 270.89794922 C-178.33695363 263.26294781 -162.26190865 257.43837987 -145.9921875 254.5546875 C-126.70807378 251.72317158 -106.80372117 250.41395109 -87.47900391 253.5546875 C-68.83895016 256.90306824 -51.85984141 262.42404917 -35 271 C-34.01 270.67 -33.02 270.34 -32 270 C-31.18082358 268.27398621 -30.36993984 266.5440353 -29.5625 264.8125 C-29.11003906 263.84957031 -28.65757812 262.88664062 -28.19140625 261.89453125 C-27.07210685 259.17518418 -26.40759435 256.90189456 -26 254 C-25.40649083 246.09951721 -25.73467487 238.53738172 -27.5 230.8125 C-30.70390041 217.96639887 -36.21823288 205.95069606 -41.609375 193.90625 C-53.23855166 167.92039888 -62.99056026 142.51620857 -66.60522461 114.04736328 C-67.36648985 106.92466091 -67.39306816 99.78123508 -67.375 92.625 C-67.37478851 91.84607391 -67.37457703 91.06714783 -67.37435913 90.26461792 C-67.333135 74.95209982 -66.29516005 59.76007337 -61.8671875 45.0078125 C-60.75327045 41.87261549 -59.49707952 38.96899805 -58 36 C-57.50886719 35.00484375 -57.01773437 34.0096875 -56.51171875 32.984375 C-52.8300194 26.13061487 -48.32242574 20.23775488 -42.89453125 14.69921875 C-38.62951643 10.7219917 -34.17599085 7.67003563 -29 5 C-19.15795324 0.48097571 -10.79386928 -0.57668858 0 0 Z " fill="#11120E" transform="translate(517,121)"/>
<path d="M0 0 C10.11972274 2.71463986 19.56860088 6.82059815 28.96704102 11.40722656 C29.98411133 11.9009375 31.00118164 12.39464844 32.04907227 12.90332031 C46.40430314 20.32264169 58.2653922 30.71841204 69.61547852 42.05175781 C80.00230122 52.97921955 88.51542358 65.8602581 95.04956055 79.43701172 C101.87111072 94.08573708 105.92231708 109.1777068 108.58422852 125.09863281 C109.31252653 131.60257956 109.21148466 138.182348 109.21704102 144.71972656 C109.21771576 145.43242706 109.2183905 146.14512756 109.21908569 146.87942505 C109.20195844 158.28505388 108.6096866 169.27767349 105.96704102 180.40722656 C105.80606934 181.10734863 105.64509766 181.8074707 105.47924805 182.52880859 C102.42113912 195.35759021 97.27231725 207.49299245 90.5300293 218.82177734 C81.19997498 233.79552519 70.41926515 247.45597456 56.97485352 258.96972656 C44.61985855 269.00146013 30.76343158 276.63874466 15.96704102 282.40722656 C16.10762134 286.53242281 16.25547514 290.65732892 16.40454102 294.78222656 C16.44385742 295.93851563 16.48317383 297.09480469 16.52368164 298.28613281 C16.77126928 305.02813471 17.18650226 311.70512818 17.96704102 318.40722656 C25.28439139 327.49490364 32.67783493 336.49652053 40.31079102 345.32128906 C42.90187065 348.31817749 45.43896581 351.35704887 47.96704102 354.40722656 C47.96704102 356.38722656 47.96704102 358.36722656 47.96704102 360.40722656 C41.12152967 368.87768253 34.07533951 377.15767726 26.96704102 385.40722656 C19.55914934 394.01348808 12.20832482 402.66001206 4.96704102 411.40722656 C5.67636319 413.21413789 5.67636319 413.21413789 6.96704102 415.40722656 C8.62175009 417.31084914 10.2912622 419.14650206 12.02954102 420.96972656 C15.65427979 424.83548293 19.11033037 428.75024646 22.40454102 432.90722656 C26.20467781 437.63522441 30.31965891 441.87773104 34.64404297 446.11572266 C38.16150387 449.56894029 41.47510876 453.1256945 44.66235352 456.88378906 C45.70976083 458.10680958 46.82843633 459.26862188 47.96704102 460.40722656 C47.96704102 462.38722656 47.96704102 464.36722656 47.96704102 466.40722656 C43.96894098 471.52740917 39.90748027 476.54286713 35.52954102 481.34472656 C29.36235041 488.10943044 23.67855565 495.25820712 17.96704102 502.40722656 C19.2155059 504.13750192 20.46588504 505.86639613 21.71704102 507.59472656 C22.41313477 508.55765625 23.10922852 509.52058594 23.82641602 510.51269531 C25.81269296 513.1985187 27.8620329 515.81389449 29.96704102 518.40722656 C29.83032227 520.47363281 29.83032227 520.47363281 28.96704102 523.40722656 C27.23283284 525.90115397 25.20006216 528.10349107 23.15454102 530.34472656 C21.96388576 531.68147549 20.77379427 533.01872675 19.58422852 534.35644531 C18.67688965 535.36843994 18.67688965 535.36843994 17.7512207 536.40087891 C15.04459868 539.44453241 12.41464532 542.55172204 9.77954102 545.65722656 C6.18490474 549.87308551 2.52939727 554.01502184 -1.22045898 558.09472656 C-4.41032743 561.56858965 -7.45344793 565.10632681 -10.40795898 568.78222656 C-14.7825783 574.2039622 -19.46623896 579.28283267 -24.21655273 584.37207031 C-27.15750664 587.52597965 -30.00769464 590.75266251 -32.82592773 594.01660156 C-33.53684009 594.83564622 -34.26607225 595.64033982 -35.03295898 596.40722656 C-37.34295898 596.40722656 -39.65295898 596.40722656 -42.03295898 596.40722656 C-56.03134485 581.50355935 -56.03134485 581.50355935 -61.27124023 575.41894531 C-64.07673964 572.21532626 -66.97116617 569.09313578 -69.85498047 565.96020508 C-72.68841865 562.8800877 -75.49654533 559.78011281 -78.28295898 556.65722656 C-85.03966218 549.1237491 -91.87579666 541.56438889 -99.03295898 534.40722656 C-99.36295898 450.91722656 -99.69295898 367.42722656 -100.03295898 281.40722656 C-105.64295898 278.43722656 -111.25295898 275.46722656 -117.03295898 272.40722656 C-124.85957659 267.1456349 -131.98837853 261.85984807 -138.84936523 255.41503906 C-141.0490408 253.34319958 -141.0490408 253.34319958 -143.61108398 251.36425781 C-147.24454708 248.42818522 -150.06981735 245.00450357 -153.03295898 241.40722656 C-153.79866211 240.47910156 -154.56436523 239.55097656 -155.35327148 238.59472656 C-165.04144922 226.44654132 -172.67402191 213.49383162 -178.33276367 199.00415039 C-181.57905774 190.30967704 -184.05847297 181.47085649 -186.03295898 172.40722656 C-186.40227539 170.71339844 -186.40227539 170.71339844 -186.77905273 168.98535156 C-189.24636635 155.03226765 -189.07282803 139.91947859 -187.26123047 125.89941406 C-184.73193224 109.39867096 -179.48141446 93.3303118 -172.03295898 78.40722656 C-164.61624735 63.74653089 -155.30617929 51.36367234 -144.03295898 39.40722656 C-143.36135742 38.67117188 -142.68975586 37.93511719 -141.99780273 37.17675781 C-132.57666319 27.22733007 -121.11250334 19.5527127 -109.15063477 12.97924805 C-95.01807238 5.53342881 -79.7756058 0.15125477 -64.03295898 -2.59277344 C-42.61942633 -6.18252745 -21.09152629 -5.22348557 0 0 Z " fill="#E19E1C" transform="translate(744.032958984375,249.5927734375)"/>
<path d="M0 0 C4.95405816 1.04017591 9.02493202 2.89281326 13.41796875 5.35546875 C17.76947324 8.07424794 21.81852593 11.16909691 25.3671875 14.8828125 C29.42481236 20.14413469 31.92327341 26.30818351 34.375 32.4375 C35.35448041 38.02053832 35.50759157 43.35304373 35 49 C33.89589608 54.48287968 32.24572504 59.5426275 29.71484375 64.53515625 C27.20450284 68.61183801 24.22140766 71.9622647 20.75 75.25 C16.91672455 78.47869845 13.0183091 80.952788 8.4609375 83.03515625 C3.72360941 84.89248964 -0.71420434 85.79073702 -5.7734375 86.25390625 C-11.36215977 86.48126897 -16.29743766 85.88446903 -21.6875 84.375 C-26.57178073 82.70804977 -30.78677189 80.74147014 -34.9453125 77.6796875 C-38.62818598 74.66897344 -42.02711113 71.7364519 -45 68 C-48.23078421 62.74908021 -50.86580148 57.30737191 -52.375 51.3125 C-53.15357987 46.84168571 -53.46848284 42.52123122 -53 38 C-51.93991109 32.01361557 -50.01996097 26.65660832 -47.25 21.25 C-44.89660027 17.19499998 -42.43378133 13.73405686 -38.9765625 10.55859375 C-35.21281165 7.59073488 -31.25892044 5.18916471 -27 3 C-26.33742188 2.65710938 -25.67484375 2.31421875 -24.9921875 1.9609375 C-17.33833867 -1.2506775 -8.12666024 -0.81700578 0 0 Z " fill="#FEFEFD" transform="translate(713,330)"/>
</svg>
